PathFileType	4	(X/Y/Z)	SUBJ24_0_static_RCNL2025.trc
DataRate	CameraRate	NumFrames	NumMarkers	Units	OrigDataRate	OrigDataStartFrame	OrigNumFrames
100	100	13	25	mm	100	62	92
Frame#	Time	R_Shoulder			L_Shoulder			C7			J_Notch			R_Elbow			L_Elbow			R_Wrist			L_Wrist			R_Asis			L_Asis			Sacral			Thoracic			Sternum			R_Thigh_Lateral			R_Knee_Lateral			R_Shank_Lateral			R_Ankle_Lateral			R_Heel			R_Toe			L_Thigh_Lateral			L_Knee_Lateral			L_Shank_Lateral			L_Ankle_Lateral			L_Heel			L_Toe		
		X1	Y1	Z1	X2	Y2	Z2	X3	Y3	Z3	X4	Y4	Z4	X5	Y5	Z5	X6	Y6	Z6	X7	Y7	Z7	X8	Y8	Z8	X9	Y9	Z9	X10	Y10	Z10	X11	Y11	Z11	X12	Y12	Z12	X13	Y13	Z13	X14	Y14	Z14	X15	Y15	Z15	X16	Y16	Z16	X17	Y17	Z17	X18	Y18	Z18	X19	Y19	Z19	X20	Y20	Z20	X21	Y21	Z21	X22	Y22	Z22	X23	Y23	Z23	X24	Y24	Z24	X25	Y25	Z25
62	0.61000000	-283.569794	1344.333130	-61.070042	-313.014404	1340.179077	-397.027161	-378.830841	1393.947388	-220.536346	-239.184647	1310.821289	-232.513519	-272.072754	1122.650391	111.360962	-335.648590	1108.049683	-561.412537	-201.846031	920.999817	208.538086	-273.522324	923.972900	-687.378571	-240.599747	889.659546	-65.298347	-247.289398	886.207886	-395.353485	-414.597260	931.270386	-221.445572	-425.364075	1121.294922	-223.788651	-158.980423	1095.106079	-241.279938	-351.394104	588.383179	-29.708050	-309.620972	447.445251	-103.229698	-337.978271	307.985565	-47.228703	-365.560089	70.906082	-110.383476	-410.934387	40.557140	-166.328094	-235.531296	42.693855	-118.814735	-322.196930	584.603149	-408.148163	-320.310638	452.200562	-353.469849	-352.102295	296.848999	-400.991821	-357.976318	68.430779	-329.784241	-398.982727	41.051708	-270.154419	-235.042068	46.743053	-312.303772
63	0.62000000	-283.674622	1344.421753	-61.113102	-313.087372	1340.211426	-397.099121	-378.978729	1393.962280	-220.553955	-239.305511	1310.815552	-232.497971	-272.102783	1122.655518	111.377350	-335.697205	1108.027588	-561.437378	-201.914223	921.122162	208.582428	-273.554794	923.988678	-687.474121	-240.733582	889.718994	-65.216049	-247.355255	886.234192	-395.411133	-414.617218	931.274109	-221.436813	-425.466888	1121.319092	-223.827835	-159.114426	1095.165771	-241.278397	-351.405731	588.449585	-29.723356	-309.617249	447.436676	-103.222290	-337.952362	307.944977	-47.234222	-365.635712	70.906113	-110.419907	-410.919678	40.631580	-166.352509	-235.469894	42.739204	-118.843918	-322.118195	584.497925	-407.896057	-320.378418	452.159485	-353.451141	-352.197937	296.876343	-400.986023	-357.989777	68.445610	-329.782471	-399.142944	40.647877	-270.264862	-235.028885	46.739017	-312.321350
64	0.63000000	-283.739319	1344.438354	-61.133717	-313.233002	1340.277588	-397.127167	-379.137024	1393.984009	-220.543671	-239.425430	1310.852539	-232.579315	-272.121185	1122.801392	111.394196	-335.824463	1108.078613	-561.477051	-201.923325	921.213562	208.648300	-273.539795	924.002838	-687.408234	-240.736588	889.695190	-65.233040	-247.435104	886.248047	-395.322021	-414.701904	931.309143	-221.369324	-425.983673	1121.596069	-223.523422	-159.123260	1095.256104	-241.292694	-351.469727	588.478027	-29.773893	-309.611328	447.431244	-103.235023	-337.880035	308.030090	-47.296169	-365.492401	70.791237	-110.361900	-410.956757	40.681110	-166.319016	-235.458115	42.743900	-118.849960	-322.105713	584.394897	-408.087585	-320.393372	452.146454	-353.430328	-352.203796	296.859863	-400.996277	-357.965057	68.479973	-329.823151	-399.149078	40.609566	-270.269501	-235.090164	46.736626	-312.277100
65	0.64000000	-283.829468	1344.466919	-61.199539	-313.378967	1340.277588	-397.149109	-379.192017	1393.973877	-220.644699	-239.613892	1310.871826	-232.557953	-272.150024	1122.856689	111.389626	-335.844421	1108.045532	-561.458008	-201.988396	921.330780	208.655457	-273.602966	923.963104	-687.435883	-240.742004	889.703308	-65.287071	-247.496155	886.221069	-395.398346	-414.775055	931.292236	-221.458054	-426.050110	1121.536987	-223.518204	-159.210983	1095.346313	-241.342896	-351.557983	588.490540	-29.782442	-309.609344	447.430328	-103.237144	-337.919891	307.999023	-47.299469	-365.512695	70.845657	-110.337135	-410.964813	40.685768	-166.313522	-235.472260	42.719738	-118.833611	-322.188385	584.534973	-408.009857	-320.469452	452.205414	-353.493988	-352.204651	296.844238	-400.970184	-357.943054	68.417732	-329.844299	-398.935699	41.062351	-270.105713	-235.045547	46.729603	-312.319946
66	0.65000000	-284.004028	1344.513184	-61.204845	-313.513397	1340.287476	-397.197083	-379.350128	1393.884155	-220.639526	-239.591568	1310.958862	-232.638016	-272.261475	1122.864502	111.453957	-335.874756	1108.005005	-561.510559	-202.086082	921.478210	208.705399	-273.572968	923.953491	-687.325104	-240.905685	889.771851	-65.247810	-247.522675	886.242004	-395.403656	-414.840271	931.266174	-221.408737	-425.674011	1121.236450	-223.810806	-159.229355	1095.559082	-241.503418	-351.533630	588.373535	-29.758507	-309.625183	447.422272	-103.234436	-337.995636	307.977173	-47.226349	-365.545807	70.889130	-110.307968	-410.981842	40.590305	-166.289062	-235.512375	42.779667	-118.835258	-322.139923	584.343628	-407.872009	-320.485596	452.180542	-353.490814	-352.209290	296.828461	-400.975342	-357.957794	68.399551	-329.761597	-399.142639	40.713554	-270.206085	-235.095917	46.747280	-312.343231
67	0.66000000	-284.102203	1344.604492	-61.256744	-313.594177	1340.296265	-397.279205	-379.555908	1393.852661	-220.753555	-239.703903	1310.965210	-232.655243	-272.285980	1122.920288	111.446823	-335.916656	1107.987427	-561.546204	-202.096161	921.556366	208.740692	-273.633591	923.939148	-687.371460	-241.005402	889.733521	-65.196869	-247.526398	886.255310	-395.397034	-414.914978	931.242004	-221.475540	-425.516113	1121.135254	-223.950394	-159.287262	1095.575928	-241.432938	-351.543457	588.388123	-29.768890	-309.707275	447.384369	-103.323448	-338.067963	307.995575	-47.213932	-365.524780	70.811340	-110.364616	-410.961334	40.593983	-166.286713	-235.409378	42.856289	-119.022255	-322.187683	584.508911	-407.980743	-320.482849	452.176239	-353.486633	-352.217285	296.836914	-400.966278	-357.958496	68.368553	-329.756775	-399.036377	40.913479	-270.184082	-235.097214	46.733185	-312.371277
68	0.67000000	-284.195190	1344.640015	-61.295765	-313.672455	1340.302612	-397.230560	-379.701019	1393.854004	-220.750687	-238.444397	1311.684570	-233.294678	-272.470032	1122.982056	111.477493	-335.980377	1108.009277	-561.499878	-202.139671	921.670898	208.775764	-273.636490	923.913910	-687.336273	-240.991486	889.729431	-65.202995	-247.593002	886.244324	-395.381226	-414.989685	931.236755	-221.418839	-426.201538	1121.359741	-223.588882	-159.290146	1095.676758	-241.404694	-351.574432	588.396973	-29.739714	-309.803955	447.483337	-103.239746	-338.012329	307.972961	-47.210808	-365.503967	70.786575	-110.375191	-410.940765	40.642830	-166.295914	-235.406921	42.819332	-118.999863	-322.200867	584.507874	-407.925995	-320.493835	452.130920	-353.474548	-352.212860	296.828918	-400.966675	-357.947327	68.337746	-329.777069	-398.997864	40.996933	-270.079437	-235.095627	46.735050	-312.361176
69	0.68000000	-284.342041	1344.649414	-61.315693	-313.789948	1340.319946	-397.322357	-379.816895	1393.838745	-220.814240	-239.531082	1311.226318	-232.944199	-272.442932	1123.049194	111.396461	-336.026947	1107.989990	-561.541260	-202.255829	921.765472	208.813690	-273.686249	923.877319	-687.368591	-241.074860	889.744629	-65.268501	-247.654465	886.289490	-395.413544	-415.021057	931.213196	-221.530777	-426.332886	1121.327515	-223.571991	-159.391556	1095.702881	-241.446106	-351.678192	588.379700	-29.797445	-309.825348	447.488403	-103.237114	-337.998047	307.985840	-47.208645	-365.445068	70.791786	-110.350471	-410.909393	40.529606	-166.348068	-235.520752	42.783150	-118.803978	-322.238220	584.290833	-407.942261	-320.526764	452.167542	-353.497589	-352.204315	296.833740	-401.005249	-357.948120	68.337723	-329.767670	-399.063599	40.888390	-270.247375	-235.094086	46.720955	-312.354309
70	0.69000000	-284.402649	1344.689331	-61.338120	-313.894928	1340.330200	-397.331085	-380.014923	1393.845825	-220.891785	-239.328659	1311.565796	-232.934189	-272.462128	1123.052734	111.437912	-336.129211	1107.972290	-561.527039	-202.291145	921.864563	208.815857	-273.695358	923.829987	-687.360626	-241.210571	889.791626	-65.164215	-247.679825	886.265930	-395.412445	-415.090271	931.185120	-221.509811	-426.363373	1121.384521	-223.630142	-159.478973	1095.830322	-241.496277	-351.699341	588.372131	-29.754761	-309.797028	447.468781	-103.241203	-338.002045	307.981445	-47.245975	-365.471222	70.770462	-110.374657	-410.897247	40.511555	-166.354767	-235.528397	42.770527	-118.791985	-322.213379	584.267517	-407.930542	-320.497833	452.126770	-353.466492	-352.196930	296.830811	-401.002747	-358.001740	68.328583	-329.754425	-399.122040	40.676701	-270.300720	-235.112411	46.726238	-312.296051
71	0.70000000	-284.543335	1344.781494	-61.453911	-314.045471	1340.336914	-397.343262	-380.127075	1393.887939	-220.932449	-239.273911	1311.643921	-233.020767	-272.489624	1123.120483	111.444595	-336.174652	1107.932617	-561.566467	-202.446907	921.900574	208.770050	-273.660278	923.798950	-687.343658	-241.234528	889.818665	-65.167046	-247.670120	886.290283	-395.388153	-415.174194	931.209290	-221.538361	-426.479584	1121.391357	-223.660126	-159.465927	1095.862793	-241.528732	-351.870148	588.387939	-29.769020	-309.789612	447.461273	-103.248962	-338.048248	307.950562	-47.204224	-365.445007	70.757828	-110.392662	-410.915161	40.554245	-166.353760	-235.473251	42.742577	-118.833572	-322.208008	584.360779	-407.900787	-320.519104	452.209045	-353.458527	-352.203094	296.828339	-400.987030	-357.961884	68.397301	-329.740570	-399.000854	40.993294	-270.169098	-235.045151	46.732704	-312.309540
72	0.71000000	-284.588562	1344.807739	-61.436375	-314.121185	1340.352173	-397.397583	-380.269928	1393.837769	-220.933319	-239.415085	1311.687988	-233.045639	-272.695557	1123.187866	111.453308	-336.277802	1107.878906	-561.565247	-202.494431	922.050415	208.867401	-273.722916	923.776642	-687.339783	-241.452621	889.929016	-65.075615	-247.740280	886.278320	-395.310394	-415.199219	931.162781	-221.514435	-426.547699	1121.353149	-223.600571	-159.475784	1095.961182	-241.472321	-351.902344	588.423523	-29.782005	-309.807465	447.497559	-103.273163	-338.058197	307.998322	-47.219452	-365.513428	70.876648	-110.338234	-410.920593	40.580711	-166.352173	-235.516312	42.768246	-118.795639	-322.200775	584.324280	-407.854980	-320.579132	452.157410	-353.430511	-352.212158	296.834503	-400.970703	-358.001740	68.419495	-329.780029	-398.945679	41.089790	-270.073120	-235.098068	46.725601	-312.266541
73	0.72000000	-284.669128	1344.816895	-61.481701	-314.209625	1340.332886	-397.477417	-380.304688	1393.819946	-221.010727	-240.117783	1311.190430	-232.836197	-272.727692	1123.211914	111.442886	-336.314514	1107.936279	-561.568848	-202.498871	922.116852	208.869781	-273.746429	923.748688	-687.324249	-241.437241	889.879150	-65.147148	-247.740402	886.247986	-395.370544	-415.251678	931.169861	-221.600189	-426.619019	1121.361450	-223.674164	-159.571548	1096.053223	-241.556946	-351.896484	588.424622	-29.783176	-309.804016	447.491791	-103.246529	-338.050140	307.958527	-47.260666	-365.540527	70.877213	-110.337799	-410.974274	40.602962	-166.292160	-235.527420	42.771503	-118.800194	-322.212769	584.649597	-407.986481	-320.494385	452.247040	-353.538818	-352.210052	296.852905	-400.968048	-357.958740	68.394859	-329.759521	-399.144257	40.637447	-270.265381	-235.095917	46.737926	-312.338623
74	0.73000000	-284.790741	1344.895142	-61.493462	-314.344788	1340.338379	-397.495850	-380.501892	1393.789429	-221.099167	-240.366196	1311.195190	-232.892090	-272.786743	1123.282104	111.381676	-336.371674	1107.864990	-561.605652	-202.648109	922.126373	208.761551	-273.834747	923.721283	-687.291504	-241.423401	889.900146	-65.156319	-247.828995	886.504456	-395.386017	-415.329468	931.182251	-221.568604	-426.767487	1121.394287	-223.700653	-159.585052	1096.054199	-241.551651	-351.969208	588.424316	-29.798973	-309.883911	447.487061	-103.178802	-338.041565	307.987366	-47.238361	-365.520447	70.881607	-110.330421	-410.983368	40.607792	-166.285263	-235.498871	42.779797	-118.828423	-322.294922	584.493469	-407.999481	-320.557373	452.152008	-353.463287	-352.204803	296.844788	-400.969269	-357.947479	68.371796	-329.782898	-399.125305	40.625946	-270.240753	-235.086670	46.744240	-312.355896
